<svg xmlns="http://www.w3.org/2000/svg" xmlns:xlink="http://www.w3.org/1999/xlink" width="500" zoomAndPan="magnify" viewBox="0 0 375 374.999991" height="500" preserveAspectRatio="xMidYMid meet" version="1.0"><defs><clipPath id="313b28a553"><path d="M 27 72.1875 L 41 72.1875 L 41 86 L 27 86 Z M 27 72.1875 " clip-rule="nonzero"/></clipPath><clipPath id="0d8f5f1b17"><path d="M 82 72.1875 L 97 72.1875 L 97 86 L 82 86 Z M 82 72.1875 " clip-rule="nonzero"/></clipPath><clipPath id="c9657036ea"><path d="M 57.367188 156 L 374.445312 156 L 374.445312 303.1875 L 57.367188 303.1875 Z M 57.367188 156 " clip-rule="nonzero"/></clipPath></defs><g clip-path="url(#313b28a553)"><path fill="#4f46e5" d="M 33.859375 85.816406 C 37.621094 85.816406 40.617188 82.820312 40.617188 79.050781 C 40.617188 75.28125 37.621094 72.183594 33.859375 72.183594 C 30.09375 72.183594 27.007812 75.28125 27.007812 79.050781 C 27.007812 82.820312 30.09375 85.816406 33.859375 85.816406 " fill-opacity="1" fill-rule="nonzero"/></g><g clip-path="url(#0d8f5f1b17)"><path fill="#4f46e5" d="M 89.738281 85.816406 C 93.5 85.816406 96.589844 82.820312 96.589844 79.050781 C 96.589844 75.28125 93.5 72.183594 89.738281 72.183594 C 86.070312 72.183594 82.984375 75.28125 82.984375 79.050781 C 82.984375 82.820312 86.070312 85.816406 89.738281 85.816406 " fill-opacity="1" fill-rule="nonzero"/></g><path fill="#4f46e5" d="M 96.492188 82.914062 C 101.125 84.363281 106.820312 87.554688 110.777344 95.578125 C 115.890625 106.210938 118.207031 125.160156 111.933594 159.183594 L 116.664062 159.863281 C 123.128906 124.769531 120.523438 104.859375 115.023438 93.453125 C 110.199219 83.398438 103.058594 79.820312 97.457031 78.175781 C 97.554688 78.46875 97.554688 78.757812 97.554688 79.050781 C 97.554688 80.5 97.167969 81.753906 96.492188 82.914062 " fill-opacity="1" fill-rule="nonzero"/><path fill="#4f46e5" d="M 119.460938 161.410156 L 108.265625 159.574219 C 107.398438 159.476562 106.53125 160.058594 106.433594 160.925781 C 106.242188 161.796875 106.820312 162.570312 107.691406 162.761719 L 118.886719 164.503906 C 119.753906 164.695312 120.621094 164.113281 120.71875 163.246094 C 120.910156 162.375 120.238281 161.601562 119.460938 161.410156 " fill-opacity="1" fill-rule="nonzero"/><path fill="#4f46e5" d="M 70.824219 228.109375 L 70.824219 214.769531 C 113.285156 204.910156 118.015625 170.496094 118.402344 165.277344 L 107.691406 163.535156 C 107.109375 168.949219 102.671875 194.855469 70.824219 203.554688 L 70.824219 203.363281 C 70.824219 202.492188 70.046875 201.71875 69.179688 201.71875 L 54.511719 201.71875 C 53.546875 201.71875 52.777344 202.492188 52.777344 203.363281 L 52.777344 203.554688 C 21.019531 194.855469 16.484375 168.949219 15.910156 163.535156 L 5.195312 165.277344 C 5.675781 170.496094 10.308594 204.910156 52.777344 214.769531 L 52.777344 228.109375 C 52.777344 229.074219 53.546875 229.851562 54.511719 229.851562 L 69.179688 229.851562 C 70.046875 229.851562 70.824219 229.074219 70.824219 228.109375 " fill-opacity="1" fill-rule="nonzero"/><path fill="#4f46e5" d="M 11.660156 159.183594 C 5.386719 125.160156 7.703125 106.210938 12.914062 95.578125 C 16.777344 87.554688 22.46875 84.363281 27.101562 82.914062 C 26.425781 81.753906 26.042969 80.5 26.042969 79.050781 C 26.042969 78.757812 26.136719 78.46875 26.136719 78.175781 C 20.539062 79.820312 13.496094 83.398438 8.574219 93.453125 C 3.070312 104.859375 0.5625 124.769531 6.933594 159.863281 L 11.660156 159.183594 " fill-opacity="1" fill-rule="nonzero"/><g clip-path="url(#c9657036ea)"><path fill="#4f46e5" d="M 373.382812 202.394531 C 372.800781 201.71875 371.933594 201.332031 370.96875 201.332031 L 334.875 201.332031 L 332.269531 190.988281 L 331.976562 189.925781 L 331.882812 189.925781 C 331.691406 189.730469 331.496094 189.539062 331.304688 189.347656 C 330.917969 188.960938 330.339844 188.570312 329.664062 188.472656 C 328.695312 188.1875 327.828125 188.378906 327.058594 188.863281 C 326.285156 189.347656 325.707031 190.117188 325.511719 191.085938 L 315.476562 234.488281 L 298.007812 158.898438 L 297.8125 157.835938 L 297.621094 157.929688 C 297.527344 157.640625 297.332031 157.445312 297.140625 157.253906 C 296.75 156.769531 296.175781 156.476562 295.59375 156.285156 C 294.628906 155.996094 293.664062 156.191406 292.890625 156.671875 C 292.121094 157.058594 291.542969 157.835938 291.253906 158.703125 L 281.019531 195.921875 L 277.644531 190.117188 L 277.0625 189.152344 L 276.964844 189.25 L 276.875 189.152344 C 276.582031 188.960938 276.292969 188.765625 275.90625 188.570312 C 274.941406 188.285156 274.074219 188.285156 273.207031 188.667969 C 272.429688 189.054688 271.757812 189.730469 271.371094 190.605469 L 266.15625 204.234375 L 259.984375 185.09375 C 259.789062 184.511719 259.5 183.933594 259.015625 183.449219 C 258.535156 183.0625 257.957031 182.675781 257.378906 182.578125 C 256.410156 182.382812 255.445312 182.578125 254.675781 183.0625 C 253.996094 183.546875 253.421875 184.320312 253.226562 185.285156 L 242.898438 233.234375 L 227.167969 158.898438 L 226.878906 157.929688 L 226.785156 157.929688 C 226.589844 157.738281 226.398438 157.445312 226.203125 157.253906 C 225.816406 156.769531 225.238281 156.476562 224.5625 156.285156 C 223.597656 156.09375 222.632812 156.191406 221.957031 156.671875 C 221.183594 157.15625 220.605469 157.929688 220.316406 158.800781 L 210.957031 197.367188 L 204.394531 189.636719 C 204.199219 189.539062 204.101562 189.347656 204.007812 189.25 C 203.910156 189.152344 203.714844 189.054688 203.617188 188.960938 C 202.75 188.378906 201.882812 188.285156 201.015625 188.378906 C 200.050781 188.570312 199.277344 189.152344 198.792969 189.925781 L 191.265625 201.332031 L 162.894531 201.332031 C 161.929688 201.332031 161.058594 201.71875 160.382812 202.394531 C 159.804688 202.976562 159.421875 203.847656 159.421875 204.8125 L 159.421875 248.699219 C 159.421875 261.652344 154.109375 273.347656 145.617188 281.855469 C 137.125 290.367188 125.347656 295.679688 112.515625 295.679688 C 99.582031 295.679688 87.90625 290.367188 79.410156 281.855469 C 70.824219 273.347656 65.609375 261.652344 65.609375 248.699219 L 65.609375 230.914062 L 57.984375 230.914062 L 57.984375 248.699219 C 57.984375 263.683594 64.160156 277.3125 74.007812 287.269531 C 83.851562 297.128906 97.554688 303.21875 112.515625 303.21875 C 127.472656 303.21875 141.082031 297.128906 150.925781 287.269531 C 160.863281 277.3125 166.949219 263.683594 166.949219 248.699219 L 166.949219 208.292969 L 193.101562 208.292969 C 193.773438 208.292969 194.355469 208.195312 194.835938 207.808594 C 195.320312 207.519531 195.804688 207.132812 196.09375 206.554688 L 201.980469 197.660156 L 209.988281 207.035156 C 210.667969 207.808594 211.535156 208.195312 212.402344 208.292969 C 213.273438 208.390625 214.238281 208.097656 214.910156 207.519531 C 215.203125 207.230469 215.492188 206.9375 215.683594 206.554688 C 215.878906 206.261719 216.070312 205.875 216.070312 205.492188 L 223.5 175.328125 L 239.425781 250.730469 C 239.617188 251.695312 240.199219 252.46875 240.96875 252.953125 C 241.644531 253.4375 242.613281 253.628906 243.578125 253.4375 C 244.25 253.246094 244.832031 252.953125 245.3125 252.46875 C 245.796875 251.988281 246.085938 251.308594 246.277344 250.632812 L 257.28125 199.496094 L 262.492188 215.832031 C 262.78125 216.703125 263.457031 217.476562 264.230469 217.863281 C 265 218.25 265.96875 218.347656 266.933594 218.054688 C 267.414062 217.863281 267.898438 217.574219 268.285156 217.1875 C 268.667969 216.796875 268.957031 216.316406 269.152344 215.832031 L 275.328125 199.882812 L 279.1875 206.554688 C 279.671875 207.421875 280.445312 208.003906 281.3125 208.195312 C 282.179688 208.390625 283.148438 208.292969 284.015625 207.808594 C 284.398438 207.617188 284.6875 207.324219 284.980469 206.9375 C 284.980469 206.84375 285.074219 206.84375 285.074219 206.746094 L 285.269531 206.84375 L 285.558594 205.777344 L 294.339844 173.878906 L 312.097656 250.730469 C 312.292969 251.695312 312.871094 252.46875 313.640625 252.953125 C 314.316406 253.4375 315.28125 253.628906 316.25 253.4375 C 316.925781 253.246094 317.5 252.855469 317.886719 252.46875 C 318.371094 251.988281 318.757812 251.40625 318.851562 250.730469 L 329.085938 206.457031 C 329.277344 206.9375 329.664062 207.324219 330.046875 207.617188 C 330.339844 207.808594 330.726562 208.003906 331.109375 208.195312 L 331.109375 208.292969 L 370.96875 208.292969 C 371.933594 208.292969 372.800781 207.90625 373.382812 207.324219 C 374.058594 206.652344 374.445312 205.777344 374.445312 204.8125 C 374.445312 203.847656 374.058594 202.976562 373.382812 202.394531 " fill-opacity="1" fill-rule="nonzero"/></g><path fill="#4f46e5" d="M 17.257812 160.925781 C 17.066406 160.058594 16.292969 159.476562 15.425781 159.574219 L 4.230469 161.410156 C 3.363281 161.601562 2.78125 162.375 2.878906 163.246094 C 3.070312 164.113281 3.84375 164.695312 4.710938 164.503906 L 15.910156 162.761719 C 16.777344 162.570312 17.355469 161.796875 17.257812 160.925781 " fill-opacity="1" fill-rule="nonzero"/></svg>